<svg width="432" height="428" viewBox="0 0 432 428" fill="none" xmlns="http://www.w3.org/2000/svg">
<path d="M407.173 234.92C395.26 340.941 299.283 417.273 192.802 405.412C86.3203 393.551 9.65689 297.989 21.5692 191.968C33.4815 85.9471 129.459 9.61509 235.94 21.4759C342.422 33.3367 419.085 128.899 407.173 234.92Z" fill="white"/>
<path d="M393.998 233.453C405.091 134.727 333.7 45.682 234.462 34.628C135.225 23.5743 45.8369 94.7107 34.7443 193.436C23.6519 292.161 95.0419 381.206 194.279 392.26L193.369 400.36C90.095 388.856 15.6278 296.49 26.5112 193.742L26.6431 192.534C38.2419 89.3026 131.693 14.9792 235.372 26.5276C339.052 38.0763 413.698 131.124 402.099 234.355L401.96 235.563C389.77 338.165 296.644 411.863 193.369 400.36L194.279 392.26C293.517 403.314 382.905 332.178 393.998 233.453Z" fill="#111111"/>
<path d="M397.025 233.79C385.74 334.231 294.814 406.545 193.937 395.308C93.0597 384.072 20.4312 293.539 31.7166 193.098C43.0019 92.6573 133.928 20.3429 234.805 31.5794C335.682 42.816 408.31 133.349 397.025 233.79Z" fill="#111111"/>
<path d="M392.975 233.338C404.007 135.15 333.006 46.6185 234.35 35.6292C135.694 24.64 46.799 95.3613 35.7667 193.549C24.7345 291.738 95.7359 380.269 194.392 391.259L193.937 395.308L191.577 395.031C91.9299 382.657 20.5194 292.754 31.7166 193.098C43.002 92.6573 133.928 20.3429 234.805 31.5794L237.164 31.8569C336.812 44.2308 408.222 134.133 397.025 233.789C385.739 334.23 294.814 406.545 193.937 395.308L194.392 391.259C293.048 402.248 381.942 331.526 392.975 233.338Z" fill="white"/>
<path d="M315.846 224.747C309.576 280.548 259.062 320.722 203.019 314.48C146.976 308.237 106.627 257.941 112.897 202.141C119.166 146.34 169.681 106.166 225.723 112.408C281.766 118.651 322.116 168.947 315.846 224.747Z" fill="#1E1E1E"/>
<path d="M303.694 223.394C309.204 174.352 273.739 130.059 224.359 124.558C174.978 119.058 130.558 154.453 125.048 203.495C119.538 252.537 155.004 296.83 204.385 302.33L203.02 314.479L201.708 314.326C146.784 307.505 107.302 258.289 112.759 203.447L112.897 202.141C119.166 146.341 169.681 106.166 225.724 112.408L227.034 112.563C282.394 119.437 322.066 169.383 315.846 224.747L315.691 226.052C308.787 281.172 258.625 320.673 203.02 314.479L204.385 302.33C253.765 307.831 298.184 272.436 303.694 223.394Z" fill="#111111"/>
<mask id="mask0_6_12267" style="mask-type:alpha" maskUnits="userSpaceOnUse" x="112" y="111" width="205" height="205">
<path d="M315.846 224.747C309.576 280.548 259.062 320.722 203.019 314.48C146.976 308.237 106.627 257.941 112.897 202.141C119.166 146.34 169.681 106.166 225.723 112.408C281.766 118.651 322.116 168.947 315.846 224.747Z" fill="#DEFFF8"/>
</mask>
<g mask="url(#mask0_6_12267)">
<path d="M238.716 180.166L201.482 176.018L186.473 141.839L208.697 111.807L245.93 115.955L260.94 150.134L238.716 180.166Z" fill="white"/>
<path d="M129.896 99.9705L92.6629 95.8231L77.6536 61.6438L99.8776 31.6119L137.111 35.7592L152.12 69.9385L129.896 99.9705Z" fill="white"/>
<path d="M361.533 126.698L324.299 122.55L309.29 88.3711L331.514 58.3392L368.747 62.4866L383.757 96.6659L361.533 126.698Z" fill="white"/>
<path d="M339.273 326.385L302.04 322.238L287.03 288.058L309.254 258.026L346.488 262.174L361.497 296.353L339.273 326.385Z" fill="white"/>
<path d="M168.997 273.85L131.764 269.702L116.754 235.523L138.978 205.491L176.212 209.638L191.221 243.818L168.997 273.85Z" fill="white"/>
<path d="M354.367 193.149L317.134 189.002L302.124 154.823L324.348 124.791L361.582 128.938L376.591 163.117L354.367 193.149Z" fill="white"/>
<path d="M247.932 282.887L285.165 287.035L307.389 257.003L292.38 222.823L255.147 218.676L232.922 248.708L247.932 282.887Z" fill="white"/>
<path d="M139.113 202.692L176.346 206.84L198.57 176.808L183.561 142.628L146.327 138.481L124.103 168.513L139.113 202.692Z" fill="white"/>
<path d="M178.213 376.571L215.447 380.719L237.671 350.687L222.661 316.507L185.428 312.36L163.204 342.392L178.213 376.571Z" fill="white"/>
<path d="M263.026 149.652L300.259 153.799L322.483 123.767L307.474 89.5881L270.241 85.4407L248.017 115.473L263.026 149.652Z" fill="#171717"/>
<path d="M230.787 246.949L193.554 242.802L178.544 208.623L200.768 178.591L238.002 182.738L253.011 216.917L230.787 246.949Z" fill="#171717"/>
<path d="M277.816 354.045L240.583 349.897L225.574 315.718L247.798 285.686L285.031 289.833L300.04 324.013L277.816 354.045Z" fill="#171717"/>
<path d="M114.373 234.298L77.1397 230.15L62.1303 195.971L84.3543 165.939L121.588 170.087L136.597 204.266L114.373 234.298Z" fill="#171717"/>
<path d="M121.968 166.755L84.7346 162.607L69.7252 128.428L91.9492 98.396L129.183 102.543L144.192 136.723L121.968 166.755Z" fill="white"/>
<path d="M161.069 340.633L123.835 336.486L108.826 302.307L131.05 272.275L168.283 276.422L183.293 310.601L161.069 340.633Z" fill="#171717"/>
<path d="M346.438 259.933L309.205 255.786L294.196 221.607L316.42 191.575L353.653 195.722L368.662 229.901L346.438 259.933Z" fill="#171717"/>
<path d="M245.881 113.714L208.648 109.567L193.639 75.3873L215.863 45.3554L253.096 49.5028L268.105 83.6821L245.881 113.714Z" fill="white"/>
<path d="M292.577 220.049L314.801 190.018L299.792 155.838L262.558 151.691L240.334 181.723L255.344 215.902L292.577 220.049Z" fill="white"/>
<path d="M183.758 139.854L205.982 109.823L190.973 75.6432L153.739 71.4959L131.515 101.528L146.525 135.707L183.758 139.854Z" fill="#171717"/>
<path d="M222.859 313.733L245.083 283.701L230.073 249.522L192.84 245.375L170.616 275.407L185.625 309.586L222.859 313.733Z" fill="white"/>
</g>
<path d="M301.67 223.168C307.053 175.253 272.401 131.96 224.131 126.583C175.861 121.206 132.456 155.805 127.073 203.72C121.689 251.636 156.342 294.928 204.612 300.305L203.02 314.479L201.708 314.326C146.784 307.505 107.302 258.289 112.759 203.447L112.897 202.141C119.166 146.341 169.681 106.166 225.724 112.408L227.034 112.563C282.394 119.437 322.066 169.383 315.846 224.747L315.691 226.052C308.787 281.172 258.625 320.673 203.02 314.479L204.612 300.305C252.882 305.681 296.286 271.084 301.67 223.168Z" fill="#111111"/>
<path d="M307.745 223.845C313.509 172.55 276.415 126.257 224.814 120.509C173.213 114.761 126.761 151.749 120.998 203.044C115.235 254.338 152.328 300.632 203.93 306.38L203.02 314.479L201.708 314.326C146.784 307.505 107.302 258.289 112.759 203.447L112.897 202.141C119.166 146.341 169.681 106.166 225.724 112.408L227.034 112.563C282.394 119.437 322.066 169.383 315.846 224.747L315.691 226.052C308.787 281.172 258.625 320.673 203.02 314.479L203.93 306.38C255.531 312.128 301.982 275.14 307.745 223.845Z" fill="#FF5900"/>
<path d="M315.846 224.747C322.066 169.383 282.394 119.437 227.034 112.563L225.724 112.408C169.681 106.166 119.166 146.341 112.897 202.141L112.759 203.447C107.302 258.289 146.784 307.505 201.708 314.326L203.02 314.48C258.625 320.673 308.787 281.172 315.691 226.052L315.846 224.747ZM319.897 225.199C313.374 283.252 260.828 325.02 202.564 318.53C144.301 312.04 102.324 259.743 108.847 201.69C115.369 143.637 167.915 101.869 226.179 108.359C284.442 114.849 326.42 167.145 319.897 225.199Z" fill="white"/>
<path d="M313.821 224.522C319.964 169.848 280.429 120.553 225.496 114.434C170.564 108.315 121.065 147.693 114.922 202.367C108.779 257.041 148.315 306.336 203.247 312.455L203.02 314.479L201.708 314.326C146.784 307.505 107.302 258.289 112.759 203.447L112.897 202.141C119.166 146.341 169.681 106.166 225.724 112.408L227.034 112.563C282.394 119.437 322.066 169.383 315.846 224.747L315.691 226.052C308.787 281.172 258.625 320.673 203.02 314.479L203.247 312.455C258.179 318.574 307.678 279.196 313.821 224.522Z" fill="white"/>
<path d="M345.413 129.336C340.012 121.134 333.353 119.641 325.435 124.857C321.513 127.441 319.366 130.389 318.997 133.703C318.687 137.029 319.798 140.615 322.331 144.462C323.144 145.696 324.138 146.81 325.314 147.804C326.513 148.835 327.744 149.637 329.007 150.211C330.33 150.796 331.63 151.11 332.908 151.153C334.21 151.232 335.387 150.925 336.441 150.231L329.093 139.071L336.175 134.406L348.541 153.187L327.294 167.182L322.276 159.561L331.864 153.245C331.501 153.484 330.679 153.818 329.398 154.245C328.141 154.709 326.639 154.918 324.891 154.873C323.203 154.84 321.385 154.373 319.437 153.47C317.525 152.544 315.757 150.847 314.132 148.38C312.101 145.295 310.691 142.244 309.901 139.226C309.135 136.244 308.99 133.374 309.465 130.615C309.94 127.857 311.059 125.247 312.823 122.784C314.61 120.358 317.029 118.141 320.08 116.131C323.422 113.93 326.638 112.566 329.728 112.04C332.854 111.489 335.82 111.643 338.624 112.501C341.428 113.36 344.03 114.82 346.429 116.882C348.888 118.956 351.122 121.517 353.129 124.566C354.563 126.743 355.694 129.015 356.524 131.383C357.39 133.726 357.834 136.061 357.856 138.388C357.878 140.715 357.4 142.955 356.422 145.108C355.468 147.297 353.895 149.296 351.701 151.105L346.11 142.613C347.032 141.641 347.629 140.572 347.902 139.404C348.198 138.272 348.277 137.127 348.14 135.969C348.002 134.811 347.671 133.676 347.148 132.564C346.66 131.428 346.082 130.352 345.413 129.336Z" fill="white"/>
<path d="M317.641 84.4674L294.169 123.635L276.997 113.359L288.388 66.9616L297.113 72.1832L285.723 118.58L309.195 79.4132L317.641 84.4674ZM256.47 101.074L279.942 61.9073L288.388 66.9616L264.916 106.129L256.47 101.074Z" fill="white"/>
<path d="M249.15 51.6243L258.817 54.0846L247.517 98.3151L237.85 95.8548L249.15 51.6243Z" fill="white"/>
<path d="M206.698 96.2713L186.556 96.8901L185.196 51.2713L204.752 50.6704C208.228 50.5636 211.375 51.054 214.191 52.1416C217.006 53.1858 219.422 54.6988 221.438 56.6807C223.497 58.6179 225.089 60.9824 226.217 63.7744C227.386 66.5216 228.02 69.5679 228.12 72.9133C228.22 76.2586 227.768 79.3383 226.764 82.1523C225.804 84.9649 224.376 87.4005 222.48 89.4591C220.628 91.5164 218.349 93.1519 215.645 94.3657C212.983 95.5346 210.001 96.1698 206.698 96.2713ZM195.445 60.219L196.253 87.3296L205.445 87.0472C207.574 86.9818 209.411 86.5992 210.956 85.8994C212.5 85.1562 213.776 84.1821 214.784 82.977C215.792 81.7719 216.51 80.3365 216.939 78.6708C217.411 77.0038 217.618 75.1928 217.56 73.2377C217.433 68.9799 216.204 65.6693 213.871 63.3057C211.539 60.9421 208.265 59.8251 204.05 59.9546L195.445 60.219Z" fill="white"/>
<path d="M168.425 79.7318C171.784 86.3593 172.467 92.3716 170.473 97.7686C168.46 103.127 163.924 107.597 156.865 111.178C149.729 114.799 143.425 115.829 137.953 114.269C132.5 112.651 128.094 108.527 124.735 101.9C121.336 95.1949 120.672 89.1728 122.744 83.8336C124.796 78.4557 129.313 73.9957 136.294 70.4535C143.275 66.9113 149.502 65.8718 154.973 67.3348C160.463 68.7395 164.947 72.8718 168.425 79.7318ZM159.29 84.2204C158.367 82.3988 157.251 80.9186 155.942 79.7797C154.653 78.5825 153.2 77.7361 151.583 77.2406C149.967 76.7452 148.226 76.6296 146.361 76.8938C144.515 77.0996 142.583 77.7141 140.567 78.7374C136.456 80.8234 133.825 83.5222 132.676 86.834C131.566 90.1261 131.944 93.6131 133.81 97.2951C135.755 101.132 138.363 103.536 141.635 104.507C144.945 105.459 148.656 104.892 152.767 102.806C157.111 100.602 159.751 97.8737 160.686 94.6215C161.622 91.3694 161.157 87.9023 159.29 84.2204Z" fill="white"/>
<path d="M115.951 147.659C113.8 150.666 111.471 153.064 108.963 154.853C106.42 156.617 103.758 157.762 100.978 158.288C98.2229 158.779 95.3801 158.646 92.4494 157.888C89.5439 157.095 86.6415 155.663 83.742 153.592C80.8426 151.521 78.5725 149.205 76.9319 146.643C75.2913 144.082 74.2825 141.384 73.9056 138.549C73.4933 135.689 73.7103 132.771 74.5565 129.795C75.4281 126.783 76.9263 123.791 79.0513 120.82C80.6449 118.591 82.4355 116.61 84.4231 114.877C86.4005 113.082 88.5268 111.715 90.8018 110.775C93.0768 109.835 95.4677 109.405 97.9744 109.485C100.471 109.505 103.018 110.202 105.614 111.576L99.6571 119.907C98.4647 119.482 97.2366 119.407 95.9729 119.68C94.7345 119.918 93.5187 120.385 92.3254 121.083C91.1574 121.745 90.0753 122.548 89.0789 123.494C88.0826 124.439 87.2302 125.406 86.5219 126.397C83.8911 130.076 82.8903 133.53 83.5197 136.758C84.1389 139.927 86.1811 142.748 89.6463 145.224C93.0762 147.674 96.4212 148.673 99.6813 148.223C102.942 147.773 105.874 145.726 108.48 142.082C109.188 141.092 109.841 139.955 110.438 138.671C111 137.362 111.406 136.049 111.654 134.73C111.893 133.35 111.937 132.019 111.786 130.735C111.661 129.416 111.204 128.262 110.417 127.272L116.26 119.1C118.351 121.181 119.815 123.43 120.652 125.845C121.479 128.199 121.821 130.635 121.678 133.151C121.499 135.642 120.898 138.126 119.875 140.602C118.853 143.078 117.544 145.431 115.951 147.659Z" fill="white"/>
<path d="M330.16 110.919C333.213 110.464 336.141 110.656 338.929 111.509C341.877 112.412 344.601 113.944 347.098 116.088C349.643 118.234 351.941 120.874 353.996 123.995C355.471 126.235 356.639 128.578 357.498 131.023L357.662 131.481C358.459 133.776 358.871 136.076 358.893 138.377C358.917 140.853 358.408 143.237 357.373 145.521C356.343 147.886 354.657 150.012 352.361 151.906L351.469 152.641L345.243 143.184L344.789 142.497L345.357 141.9C346.167 141.046 346.665 140.137 346.891 139.169L346.898 139.142C347.161 138.136 347.231 137.121 347.109 136.092C346.985 135.051 346.687 134.023 346.208 133.007L346.201 132.99L346.194 132.974C345.73 131.893 345.18 130.871 344.545 129.907C341.928 125.932 339.111 123.743 336.14 123.077C333.178 122.413 329.823 123.209 326.006 125.723C322.239 128.204 320.359 130.909 320.03 133.798L320.008 134.081C319.813 137.024 320.823 140.283 323.198 143.89C323.954 145.038 324.881 146.079 325.984 147.012L325.99 147.018C327.125 147.993 328.274 148.737 329.435 149.264C330.65 149.801 331.817 150.078 332.944 150.116L332.957 150.117L332.972 150.117C333.681 150.16 334.333 150.066 334.939 149.839L327.655 138.776L336.472 132.969L349.978 153.481L326.997 168.62L320.838 159.266L325.942 155.903C325.591 155.915 325.23 155.92 324.862 155.91L324.862 155.909C322.999 155.872 321.041 155.358 319 154.412L318.983 154.404C316.85 153.371 314.954 151.516 313.265 148.951C311.183 145.789 309.72 142.635 308.897 139.489L308.895 139.484C308.097 136.375 307.94 133.356 308.443 130.44C308.946 127.515 310.132 124.76 311.98 122.181L311.988 122.169C313.861 119.626 316.378 117.327 319.51 115.264C322.938 113.006 326.285 111.574 329.549 111.017L330.16 110.919ZM338.623 112.501C335.819 111.643 332.854 111.489 329.728 112.04L329.147 112.148C326.235 112.74 323.212 114.067 320.08 116.13C317.029 118.14 314.61 120.358 312.823 122.784C311.059 125.246 309.94 127.857 309.465 130.616L309.384 131.134C309.011 133.733 309.184 136.43 309.901 139.226C310.691 142.244 312.101 145.295 314.132 148.379C315.757 150.847 317.525 152.544 319.437 153.47C321.385 154.373 323.203 154.84 324.891 154.873C326.639 154.918 328.141 154.709 329.398 154.245C330.679 153.818 331.501 153.484 331.864 153.245L322.275 159.561L327.294 167.182L348.541 153.187L336.175 134.406L329.092 139.071L336.44 150.23C335.387 150.924 334.21 151.232 332.908 151.153C331.79 151.115 330.654 150.87 329.502 150.417L329.007 150.211C327.744 149.638 326.513 148.835 325.313 147.804C324.285 146.934 323.395 145.972 322.644 144.918L322.331 144.462C319.798 140.615 318.687 137.028 318.997 133.703C319.355 130.493 321.38 127.625 325.072 125.1L325.435 124.857C333.353 119.642 340.012 121.135 345.412 129.336C346.081 130.352 346.66 131.428 347.148 132.564C347.671 133.676 348.002 134.811 348.14 135.969C348.277 137.127 348.198 138.272 347.901 139.403C347.629 140.571 347.032 141.642 346.11 142.613L351.701 151.105C353.894 149.296 355.468 147.296 356.422 145.107C357.339 143.089 357.817 140.994 357.855 138.823L357.856 138.388C357.834 136.061 357.39 133.726 356.524 131.383C355.694 129.016 354.563 126.743 353.129 124.566C351.122 121.517 348.888 118.956 346.429 116.882C344.03 114.82 341.428 113.359 338.623 112.501Z" fill="white"/>
<path d="M298.304 71.6859L288.372 112.141L308.838 77.9905L319.065 84.1094L294.526 125.058L275.807 113.856L285.738 73.401L265.272 107.552L255.046 101.432L279.585 60.4842L298.304 71.6859ZM276.997 113.359L294.169 123.634L317.641 84.4676L309.195 79.4127L285.723 118.58L297.114 72.1832L288.387 66.9614L276.997 113.359ZM256.47 101.074L264.916 106.129L288.387 66.9614L279.942 61.9075L256.47 101.074Z" fill="white"/>
<path d="M260.079 53.3347L248.266 99.5767L236.588 96.6045L248.402 50.3625L260.079 53.3347ZM237.85 95.8549L247.518 98.3152L258.817 54.0843L249.15 51.624L237.85 95.8549Z" fill="white"/>
<path d="M204.721 49.6337C208.315 49.5233 211.602 50.029 214.566 51.1735L214.564 51.1743C217.495 52.2633 220.029 53.845 222.15 55.9251L222.551 56.3137C224.532 58.2845 226.074 60.6459 227.179 63.3851L227.178 63.386C228.399 66.2607 229.055 69.4296 229.158 72.8813C229.261 76.3403 228.794 79.551 227.742 82.5005C226.738 85.4352 225.24 87.9939 223.243 90.1618C221.289 92.3298 218.892 94.0455 216.069 95.3124L216.062 95.3155C213.263 96.5447 210.147 97.2032 206.73 97.3083L185.55 97.9588L184.128 50.2661L204.721 49.6337ZM214.191 52.1419C211.375 51.0543 208.228 50.564 204.752 50.6709L185.196 51.2714L186.556 96.8899L206.698 96.271C209.794 96.1759 212.609 95.6118 215.143 94.5783L215.645 94.3661C218.349 93.1523 220.627 91.516 222.48 89.4587C224.376 87.4001 225.804 84.9644 226.764 82.1518C227.705 79.5138 228.162 76.6425 228.133 73.5375L228.12 72.9131C228.021 69.5678 227.386 66.5213 226.217 63.7741C225.09 60.9823 223.496 58.6181 221.438 56.681C219.422 54.6992 217.006 53.1861 214.191 52.1419ZM204.05 59.9549C208.265 59.8254 211.539 60.9424 213.872 63.306C216.204 65.6694 217.433 68.9799 217.56 73.2373C217.618 75.1923 217.411 77.0037 216.939 78.6706L216.855 78.9806C216.419 80.5151 215.728 81.8473 214.783 82.977C213.776 84.1819 212.5 85.1563 210.957 85.8995L210.663 86.027C209.181 86.6458 207.441 86.9859 205.444 87.0473L196.254 87.3294L195.446 60.2189L204.05 59.9549ZM213.132 64.0352C211.054 61.9292 208.09 60.8688 204.08 60.992L196.514 61.2251L197.259 86.2604L205.414 86.0101C207.434 85.9481 209.126 85.5867 210.517 84.9593C211.935 84.2751 213.085 83.3906 213.988 82.3116C214.887 81.236 215.54 79.9436 215.934 78.4133L215.941 78.3885C216.38 76.836 216.578 75.1323 216.523 73.2701C216.401 69.1977 215.233 66.1643 213.132 64.0352Z" fill="white"/>
<path d="M135.826 69.5284C142.947 65.9148 149.443 64.7815 155.242 66.3321L155.241 66.333C161.109 67.838 165.791 72.24 169.351 79.2625C172.8 86.0677 173.568 92.3857 171.447 98.1271L171.445 98.1328C169.31 103.814 164.535 108.45 157.334 112.104C150.059 115.795 143.477 116.924 137.668 115.267L137.657 115.264C131.854 113.542 127.256 109.169 123.809 102.37C120.322 95.4913 119.568 89.1566 121.774 83.4648L121.986 82.9342C124.247 77.4824 128.921 73.0319 135.826 69.5284ZM154.973 67.3349C149.502 65.8718 143.276 66.9111 136.295 70.4532L135.647 70.7878C129.033 74.2748 124.732 78.6235 122.744 83.8332C120.672 89.1723 121.336 95.1949 124.734 101.9C128.094 108.527 132.5 112.651 137.953 114.269C143.253 115.781 149.336 114.862 156.199 111.511L156.865 111.178C163.703 107.708 168.174 103.405 170.277 98.268L170.473 97.769C172.404 92.5406 171.825 86.7343 168.732 80.3511L168.425 79.7323C164.948 72.8724 160.464 68.7396 154.973 67.3349ZM146.361 76.8943C148.226 76.6301 149.967 76.7447 151.583 77.2402C153.2 77.7356 154.653 78.5821 155.942 79.7794C157.251 80.9182 158.367 82.3987 159.291 84.2203C161.157 87.9021 161.623 91.3694 160.687 94.6214L160.594 94.9245C159.584 98.0434 156.976 100.671 152.768 102.806L152.001 103.179C148.321 104.898 144.969 105.369 141.947 104.592L141.635 104.508C138.568 103.597 136.084 101.427 134.182 97.998L133.81 97.2953C131.944 93.6133 131.566 90.1261 132.676 86.834C133.754 83.7292 136.132 81.1627 139.813 79.1353L140.567 78.7378C142.458 77.7785 144.273 77.178 146.014 76.9372L146.361 76.8943ZM151.278 78.233C149.823 77.787 148.238 77.6763 146.506 77.9215L146.49 77.9237L146.475 77.925C144.776 78.1143 142.965 78.6839 141.036 79.6626C137.087 81.6664 134.692 84.1876 133.656 87.1731C132.655 90.1497 132.971 93.3446 134.736 96.8255C136.586 100.475 138.995 102.638 141.922 103.51C144.905 104.367 148.341 103.889 152.299 101.881C156.5 99.7493 158.863 97.2072 159.689 94.3354C160.537 91.3883 160.14 88.1924 158.364 84.69C157.491 82.9671 156.452 81.6002 155.261 80.5632L155.247 80.5519L155.236 80.5408C154.056 79.4455 152.739 78.6807 151.278 78.233Z" fill="white"/>
<path d="M97.9846 108.448C100.674 108.469 103.384 109.221 106.101 110.659L107.149 111.214L100.045 121.146L99.3083 120.884C98.3018 120.526 97.2699 120.461 96.1909 120.694L96.1799 120.696L96.1678 120.699C95.0558 120.912 93.9501 121.334 92.8489 121.978L92.8363 121.985C91.7436 122.605 90.7298 123.358 89.7933 124.246C88.8392 125.151 88.0315 126.069 87.3663 126.999C84.8376 130.536 83.9815 133.702 84.5381 136.559L84.5939 136.823C85.2083 139.555 87.0337 142.081 90.2505 144.379C93.5276 146.72 96.6105 147.599 99.54 147.195C102.427 146.796 105.135 144.977 107.636 141.479C108.298 140.554 108.915 139.481 109.487 138.256C110.017 137.02 110.398 135.786 110.631 134.554L110.707 134.073C110.862 132.958 110.876 131.887 110.756 130.858L110.754 130.846L110.753 130.835C110.646 129.706 110.261 128.744 109.604 127.918L109.117 127.306L116.127 117.503L116.993 118.365C119.177 120.539 120.735 122.917 121.632 125.5L121.789 125.967C122.496 128.151 122.813 130.401 122.737 132.713L122.714 133.21L122.713 133.224C122.525 135.834 121.897 138.426 120.835 140.998C119.781 143.549 118.433 145.97 116.794 148.262C114.59 151.344 112.183 153.83 109.565 155.698L109.555 155.706L108.964 154.854C111.315 153.176 113.509 150.964 115.546 148.216L115.951 147.659C117.545 145.431 118.852 143.078 119.875 140.602C120.898 138.126 121.498 135.642 121.677 133.151C121.812 130.792 121.52 128.504 120.801 126.287L120.652 125.845C119.815 123.43 118.351 121.181 116.26 119.1L110.417 127.272C111.204 128.262 111.661 129.417 111.786 130.736C111.937 132.019 111.893 133.35 111.654 134.73C111.405 136.049 111.001 137.363 110.439 138.671C109.842 139.955 109.188 141.091 108.48 142.082L107.988 142.746C105.507 145.975 102.737 147.801 99.6809 148.224L99.375 148.261C96.2117 148.61 92.969 147.597 89.6465 145.223C86.1814 142.748 84.1384 139.927 83.5192 136.759C82.9292 133.732 83.7725 130.507 86.0478 127.084L86.522 126.397C87.1417 125.531 87.8715 124.681 88.7118 123.849L89.079 123.494C90.0753 122.549 91.1576 121.745 92.3255 121.082C93.3696 120.472 94.4309 120.038 95.5095 119.779L95.9727 119.68C97.1576 119.424 98.3113 119.474 99.4335 119.831L99.657 119.906L105.615 111.575C103.018 110.201 100.471 109.505 97.9741 109.485L97.5054 109.476C95.169 109.461 92.9345 109.894 90.8018 110.775L90.3767 110.956C88.2613 111.887 86.277 113.194 84.4232 114.876C82.4356 116.61 80.6448 118.592 79.0511 120.82L78.6603 121.377C76.7416 124.165 75.3732 126.971 74.5561 129.795C73.7099 132.771 73.4934 135.689 73.9056 138.549C74.2825 141.384 75.2915 144.081 76.932 146.643C78.5726 149.204 80.8422 151.522 83.7415 153.593C86.6409 155.664 89.5437 157.096 92.4491 157.889C95.1965 158.599 97.8669 158.76 100.46 158.373L100.977 158.288C103.757 157.762 106.42 156.617 108.964 154.854L109.555 155.706C106.903 157.545 104.105 158.753 101.169 159.308L101.158 159.31C98.2452 159.829 95.2516 159.685 92.1888 158.893L92.1756 158.889C89.1323 158.059 86.12 156.566 83.1387 154.436C80.1499 152.301 77.7801 149.894 76.0572 147.204C74.3402 144.523 73.2752 141.681 72.877 138.687L72.878 138.686C72.4458 135.676 72.6759 132.614 73.558 129.512L73.5596 129.507C74.4687 126.365 76.0248 123.269 78.2069 120.217C79.8417 117.931 81.6816 115.894 83.7263 114.108C85.7848 112.24 88.0118 110.806 90.4064 109.816C92.8129 108.822 95.3423 108.366 97.9846 108.448Z" fill="white"/>
<path d="M330.603 252.935L360.968 265.685L369.391 246.163L377.118 249.407L365.357 276.667L327.264 260.673L330.603 252.935Z" fill="white"/>
<path d="M315.234 282.57L341.717 301.506L355.163 284.682L361.902 289.5L343.127 312.993L309.904 289.238L315.234 282.57Z" fill="white"/>
<path d="M284.672 314.274L301.776 348.111L308.307 342.394L304.556 335.357L318.09 323.51L325.46 327.378L331.912 321.729L296.75 303.7L290.691 309.004L311.781 320.108L301.355 329.235L290.691 309.004L284.672 314.274Z" fill="white"/>
<path d="M240.209 336.463L258.331 371.021L280.667 360.751C281.976 360.149 283.242 359.383 284.466 358.453C285.69 357.522 286.678 356.476 287.429 355.314C288.233 354.168 288.704 352.93 288.841 351.601C288.978 350.272 288.613 348.908 287.748 347.508C287.056 346.356 286.167 345.539 285.08 345.058C283.994 344.577 282.844 344.31 281.63 344.255C280.433 344.233 279.217 344.384 277.982 344.707C276.764 345.063 275.642 345.477 274.616 345.948C278.366 344.224 280.676 342.059 281.548 339.453C282.42 336.846 282.019 333.946 280.345 330.754C279.344 328.845 278.197 327.371 276.906 326.331C275.614 325.291 274.204 324.611 272.676 324.293C271.165 324.007 269.555 324.033 267.844 324.37C266.151 324.74 264.384 325.348 262.545 326.193L240.209 336.463ZM259.018 353.12L272.388 346.973C273.732 346.355 274.975 346.171 276.116 346.423C277.293 346.658 278.227 347.433 278.917 348.75C279.607 350.066 279.675 351.2 279.119 352.149C278.581 353.132 277.658 353.924 276.349 354.526L262.979 360.673L259.018 353.12ZM269.446 340.483L255.704 346.801L251.795 339.346L265.536 333.028C266.916 332.394 268.168 332.186 269.292 332.405C270.451 332.607 271.394 333.399 272.118 334.781C272.809 336.098 272.85 337.222 272.242 338.156C271.686 339.105 270.754 339.881 269.446 340.483Z" fill="white"/>
<path d="M229.211 338.159L229.138 346.004L214.375 345.434L214.089 376.263L205.09 375.915L205.376 345.086L190.613 344.516L190.686 336.67L229.211 338.159Z" fill="white"/>
<path d="M175.863 353.736C178.916 348.182 179.546 343.11 177.754 338.522C175.943 333.966 171.849 330.125 165.471 327.001C159.023 323.842 153.323 322.885 148.369 324.128C143.433 325.42 139.439 328.844 136.386 334.398C133.297 340.017 132.685 345.097 134.548 349.638C136.393 354.211 140.47 358.043 146.778 361.133C153.086 364.223 158.716 365.187 163.668 364.027C168.638 362.915 172.703 359.485 175.863 353.736ZM167.609 349.816C166.77 351.343 165.757 352.579 164.571 353.523C163.402 354.517 162.086 355.212 160.623 355.608C159.159 356.005 157.584 356.078 155.898 355.829C154.228 355.63 152.482 355.084 150.66 354.191C146.945 352.372 144.571 350.054 143.539 347.24C142.541 344.442 142.89 341.501 144.586 338.415C146.354 335.199 148.718 333.204 151.68 332.428C154.677 331.67 158.032 332.2 161.747 334.02C165.672 335.943 168.054 338.285 168.894 341.046C169.733 343.807 169.305 346.731 167.609 349.816Z" fill="white"/>
<path d="M124.45 330.494C130.001 327.078 133.163 322.973 133.939 318.178C134.682 313.403 133.04 308.204 129.014 302.581C124.944 296.896 120.402 293.459 115.39 292.271C110.367 291.134 105.081 292.274 99.5302 295.69C93.9149 299.146 90.7631 303.268 90.0747 308.053C89.3539 312.859 90.9844 318.043 94.9663 323.604C98.9482 329.165 103.424 332.575 108.394 333.834C113.353 335.144 118.705 334.031 124.45 330.494ZM119.176 323.325C117.651 324.264 116.122 324.871 114.589 325.147C113.046 325.473 111.526 325.474 110.031 325.148C108.535 324.823 107.106 324.166 105.745 323.179C104.373 322.243 103.112 320.972 101.962 319.365C99.6168 316.09 98.7117 312.997 99.2463 310.087C99.803 307.207 101.623 304.818 104.707 302.92C107.92 300.942 111.034 300.294 114.047 300.977C117.083 301.69 119.773 303.684 122.118 306.959C124.596 310.419 125.496 313.537 124.818 316.314C124.141 319.09 122.26 321.427 119.176 323.325Z" fill="white"/>
<path d="M108.434 278.515L100.742 281.571L90.7986 260.075L82.8364 263.239L92.7802 284.735L85.3056 287.705L75.3618 266.209L60.5749 272.085L56.9867 264.328L94.9017 249.263L108.434 278.515Z" fill="white"/>
<path d="M326.021 261.108L330.054 251.76L360.42 264.51L368.842 244.988L378.301 248.96L365.846 277.829L326.021 261.108ZM377.088 249.401L369.361 246.156L360.938 265.678L330.573 252.929L327.234 260.667L365.327 276.66L377.088 249.401Z" fill="white"/>
<path d="M308.563 289.39L315.001 281.334L341.485 300.27L354.931 283.446L363.181 289.345L343.296 314.225L308.563 289.39ZM361.871 289.498L355.131 284.679L341.685 301.503L315.202 282.567L309.873 289.236L343.095 312.99L361.871 289.498Z" fill="white"/>
<path d="M296.58 302.715L283.595 314.082L301.476 349.459L309.335 342.579L305.585 335.543L318.196 324.502L325.567 328.37L333.342 321.563L296.58 302.715ZM325.431 327.379L318.06 323.511L304.527 335.359L308.277 342.396L301.747 348.113L284.643 314.275L290.662 309.006L301.326 329.236L311.751 320.109L290.662 309.006L296.721 303.702L331.883 321.731L325.431 327.379ZM301.581 327.903L292.659 310.978L310.303 320.268L301.581 327.903Z" fill="white"/>
<path d="M281.079 361.537C282.457 360.903 283.783 360.1 285.058 359.131C286.359 358.142 287.422 357.02 288.234 355.763C289.108 354.509 289.625 353.144 289.776 351.68C289.935 350.137 289.505 348.596 288.567 347.077C287.798 345.796 286.777 344.837 285.487 344.266C284.288 343.736 283.017 343.44 281.681 343.38L281.667 343.38L281.654 343.379C281.116 343.369 280.575 343.393 280.033 343.448C281.17 342.331 281.984 341.088 282.445 339.71C283.408 336.831 282.935 333.696 281.189 330.366C280.15 328.385 278.935 326.804 277.522 325.666C276.125 324.541 274.578 323.79 272.886 323.438L272.876 323.435L272.868 323.433C271.216 323.121 269.475 323.154 267.655 323.513L267.645 323.515L267.634 323.516C265.86 323.904 264.026 324.537 262.133 325.407L238.953 336.065L257.899 372.195L281.079 361.537ZM240.209 336.463L262.546 326.194C264.385 325.348 266.151 324.74 267.845 324.37C269.556 324.033 271.166 324.007 272.677 324.293C274.205 324.612 275.615 325.291 276.906 326.331C278.117 327.306 279.2 328.663 280.156 330.401L280.345 330.754C281.967 333.846 282.394 336.664 281.626 339.207L281.549 339.452C280.677 342.059 278.366 344.225 274.617 345.948C275.642 345.477 276.765 345.063 277.983 344.707C279.218 344.384 280.434 344.234 281.631 344.256C282.844 344.31 283.994 344.578 285.081 345.058C286.167 345.539 287.057 346.356 287.749 347.508C288.56 348.82 288.931 350.102 288.861 351.352L288.841 351.601C288.704 352.931 288.233 354.168 287.429 355.314C286.678 356.476 285.69 357.523 284.466 358.453C283.396 359.267 282.292 359.955 281.157 360.518L280.667 360.751L258.332 371.021L240.209 336.463ZM269.446 340.483C270.755 339.881 271.687 339.106 272.243 338.156L272.348 337.978C272.842 337.081 272.766 336.015 272.119 334.781C271.394 333.399 270.452 332.607 269.292 332.405C268.238 332.2 267.073 332.37 265.795 332.914L265.537 333.028L251.796 339.346L255.705 346.801L269.446 340.483ZM253.051 339.744L265.949 333.814C267.203 333.238 268.237 333.096 269.096 333.263L269.106 333.264L269.116 333.266C269.88 333.399 270.624 333.929 271.274 335.169C271.879 336.321 271.826 337.111 271.44 337.703L271.429 337.72L271.418 337.739C270.978 338.492 270.213 339.155 269.034 339.698L256.137 345.627L253.051 339.744ZM276.349 354.526C277.658 353.924 278.582 353.132 279.12 352.149L279.216 351.969C279.664 351.057 279.565 349.984 278.918 348.75L278.785 348.51C278.11 347.339 277.22 346.643 276.117 346.422C275.047 346.187 273.888 346.334 272.64 346.862L272.388 346.973L259.018 353.12L262.98 360.674L276.349 354.526ZM260.275 353.518L272.8 347.759C273.928 347.24 274.892 347.1 275.731 347.244L275.897 347.276L275.906 347.278L275.916 347.28C276.731 347.442 277.467 347.982 278.073 349.138C278.682 350.3 278.656 351.117 278.296 351.733L278.289 351.743L278.284 351.754C277.858 352.531 277.107 353.203 275.937 353.741L263.411 359.499L260.275 353.518Z" fill="white"/>
<path d="M230.154 337.316L230.065 346.921L215.301 346.35L215.016 377.178L204.145 376.758L204.43 345.929L189.668 345.359L189.757 335.755L230.154 337.316ZM190.612 344.515L205.375 345.086L205.089 375.916L214.088 376.263L214.374 345.434L229.137 346.004L229.209 338.159L190.685 336.67L190.612 344.515Z" fill="white"/>
<path d="M133.673 349.942C135.627 354.782 139.914 358.755 146.352 361.908C152.783 365.059 158.653 366.106 163.9 364.88L164.395 364.761C169.48 363.46 173.563 359.851 176.699 354.146C179.834 348.443 180.542 343.113 178.635 338.232L178.633 338.227C176.714 333.397 172.404 329.413 165.898 326.226C159.325 323.006 153.372 321.961 148.113 323.28L148.103 323.283C142.85 324.658 138.682 328.29 135.55 333.988C132.38 339.755 131.685 345.1 133.672 349.942L133.673 349.942ZM146.778 361.133C140.47 358.043 136.393 354.211 134.548 349.638L134.381 349.211C132.726 344.779 133.394 339.842 136.386 334.398L136.675 333.884C139.689 328.632 143.588 325.38 148.369 324.128C153.323 322.885 159.023 323.843 165.471 327.002C171.849 330.126 175.943 333.966 177.753 338.522C179.49 342.967 178.953 347.865 176.142 353.217L175.863 353.736C172.703 359.485 168.638 362.916 163.668 364.027C158.716 365.188 153.086 364.223 146.778 361.133ZM143.539 347.24C144.572 350.055 146.946 352.372 150.66 354.191C152.482 355.084 154.228 355.63 155.898 355.83C157.584 356.079 159.16 356.005 160.623 355.608C162.086 355.212 163.402 354.517 164.571 353.523L164.792 353.342C165.883 352.423 166.823 351.248 167.609 349.816L167.912 349.24C169.354 346.366 169.681 343.635 168.894 341.046L168.811 340.788C167.963 338.31 165.847 336.176 162.465 334.386L161.747 334.02C158.032 332.201 154.676 331.67 151.68 332.428C148.718 333.204 146.354 335.199 144.587 338.415C142.891 341.501 142.541 344.443 143.539 347.24ZM151.086 353.416C147.519 351.669 145.359 349.506 144.427 346.971C143.526 344.44 143.819 341.744 145.423 338.825C147.104 335.766 149.289 333.971 151.939 333.275L152.192 333.214C154.833 332.621 157.857 333.099 161.321 334.796C165.117 336.655 167.249 338.836 167.991 341.274C168.752 343.777 168.386 346.472 166.773 349.407C165.979 350.851 165.036 351.992 163.956 352.852L163.945 352.861L163.933 352.87C162.864 353.78 161.671 354.408 160.349 354.766C159.032 355.123 157.597 355.195 156.031 354.963L156.003 354.959C154.467 354.776 152.829 354.27 151.086 353.416Z" fill="white"/>
<path d="M89.1485 307.911C88.3852 313 90.1287 318.403 94.1941 324.081C98.2538 329.751 102.899 333.344 108.162 334.68L108.66 334.804C113.819 336.002 119.28 334.741 124.98 331.232C130.68 327.725 134.043 323.431 134.868 318.33L134.869 318.325C135.657 313.262 133.899 307.841 129.792 302.104C125.642 296.309 120.924 292.682 115.602 291.421L115.592 291.418C110.246 290.208 104.699 291.448 99.0046 294.953C93.2443 298.499 89.8849 302.81 89.1493 307.911L89.1485 307.911ZM94.9688 323.605C90.987 318.044 89.3563 312.86 90.0771 308.054C90.7655 303.268 93.9172 299.147 99.5322 295.691L100.052 295.377C105.413 292.206 110.526 291.171 115.392 292.272C120.404 293.46 124.946 296.896 129.016 302.581C133.042 308.204 134.684 313.403 133.942 318.178C133.19 322.823 130.198 326.821 124.966 330.172L124.453 330.495C118.708 334.031 113.356 335.144 108.396 333.834C103.582 332.615 99.2308 329.377 95.3434 324.119L94.9688 323.605ZM99.2482 310.087C98.7136 312.998 99.6189 316.091 101.964 319.366C103.114 320.972 104.376 322.243 105.747 323.179C107.109 324.166 108.537 324.823 110.033 325.149C111.529 325.474 113.048 325.474 114.591 325.148C116.124 324.872 117.653 324.264 119.179 323.325L119.743 322.964C122.493 321.134 124.185 318.917 124.82 316.314L124.88 316.053C125.441 313.342 124.521 310.311 122.121 306.959C119.776 303.684 117.085 301.69 114.05 300.977C111.224 300.337 108.311 300.867 105.31 302.565L104.709 302.921C101.626 304.819 99.8049 307.207 99.2482 310.087ZM102.739 318.889C100.487 315.743 99.6915 312.88 100.173 310.256C100.679 307.654 102.322 305.452 105.237 303.658C108.293 301.777 111.145 301.22 113.842 301.829L114.098 301.893C116.735 302.586 119.159 304.382 121.346 307.436C123.742 310.783 124.505 313.647 123.906 316.098C123.292 318.614 121.584 320.782 118.651 322.588C117.208 323.476 115.789 324.033 114.393 324.284L114.379 324.287L114.363 324.291C112.952 324.59 111.575 324.588 110.224 324.293C108.877 324 107.574 323.406 106.31 322.49L106.299 322.482L106.287 322.475C105.025 321.613 103.84 320.426 102.739 318.889Z" fill="white"/>
<path d="M100.255 282.72L90.3105 261.224L84.0723 263.703L94.0169 285.199L84.8184 288.854L74.8738 267.358L60.0874 273.234L55.7532 263.864L95.392 248.113L109.671 278.979L100.255 282.72ZM94.9035 249.262L56.9881 264.328L60.5768 272.085L75.3632 266.209L85.3069 287.705L92.782 284.735L82.8383 263.239L90.8 260.076L100.744 281.571L108.435 278.515L94.9035 249.262Z" fill="white"/>
<path d="M369.242 188.3L372.715 188.3L372.715 204.193L369.242 204.193L369.242 188.3Z" fill="white"/>
<path d="M343.308 204.193L340.833 188.3L344.352 188.3L346.804 204.125L346.827 204.125L349.438 188.3L356.522 188.3L359.406 204.148L359.428 204.148L361.494 188.3L365.036 188.3L362.925 204.193L355.886 204.193L352.98 188.346L352.957 188.346L350.346 204.193L343.308 204.193Z" fill="white"/>
<path d="M72.6583 196.292C72.6583 195.112 72.8021 194.029 73.0897 193.045C73.3773 192.062 73.8238 191.221 74.4293 190.525C75.0348 189.814 75.8067 189.269 76.7452 188.89C77.6837 188.497 78.8113 188.3 80.1282 188.3C81.4299 188.3 82.5425 188.497 83.4658 188.89C84.4043 189.269 85.1762 189.806 85.7817 190.502C86.4023 191.199 86.8564 192.039 87.144 193.023C87.4316 194.007 87.5754 195.096 87.5754 196.292C87.5754 197.488 87.4316 198.578 87.144 199.562C86.8715 200.53 86.4326 201.363 85.8271 202.059C85.2216 202.74 84.4497 203.27 83.5112 203.649C82.5727 204.012 81.4451 204.193 80.1282 204.193C78.7659 204.193 77.608 204.027 76.6544 203.694C75.7159 203.361 74.9515 202.869 74.3612 202.218C73.7709 201.552 73.3395 200.727 73.067 199.743C72.7946 198.759 72.6583 197.609 72.6583 196.292ZM75.9732 196.292C75.9732 196.958 76.0338 197.594 76.1549 198.199C76.276 198.79 76.4879 199.312 76.7906 199.766C77.0933 200.22 77.5171 200.583 78.0621 200.856C78.607 201.113 79.2957 201.242 80.1282 201.242C80.9607 201.242 81.6418 201.113 82.1716 200.856C82.7014 200.583 83.1177 200.22 83.4204 199.766C83.7383 199.312 83.9577 198.79 84.0788 198.199C84.1999 197.594 84.2605 196.958 84.2605 196.292C84.2605 195.596 84.1999 194.945 84.0788 194.34C83.9577 193.719 83.7383 193.182 83.4204 192.728C83.1177 192.273 82.6938 191.918 82.1489 191.66C81.6191 191.388 80.9456 191.252 80.1282 191.252C79.2654 191.252 78.5616 191.388 78.0167 191.66C77.4869 191.918 77.0631 192.273 76.7452 192.728C76.4425 193.182 76.2381 193.719 76.1322 194.34C76.0262 194.945 75.9732 195.596 75.9732 196.292Z" fill="white"/>
<path d="M68.5626 204.148L55.303 204.193L55.303 200.992L62.5685 197.382C63.5221 196.852 64.1881 196.277 64.5665 195.656C64.9601 195.021 65.1568 194.347 65.1568 193.636C65.1568 193.272 65.0585 192.955 64.8617 192.682C64.6649 192.395 64.4152 192.152 64.1124 191.956C63.8097 191.759 63.4616 191.607 63.068 191.501C62.6896 191.396 62.3112 191.343 61.9328 191.343C61.5241 191.343 61.1003 191.418 60.6613 191.57C60.2375 191.706 59.8515 191.895 59.5034 192.137C59.1552 192.379 58.8676 192.667 58.6406 193C58.4287 193.333 58.3227 193.689 58.3227 194.067L54.9397 194.067C54.9397 193.189 55.1365 192.395 55.53 191.683C55.9387 190.972 56.4685 190.366 57.1194 189.867C57.7854 189.367 58.5346 188.981 59.3671 188.709C60.1996 188.436 61.0473 188.3 61.9101 188.3C62.7728 188.3 63.5902 188.421 64.3622 188.663C65.1493 188.89 65.8456 189.231 66.451 189.685C67.0565 190.124 67.5333 190.677 67.8814 191.343C68.2447 192.009 68.4263 192.773 68.4263 193.636C68.4263 194.271 68.3355 194.9 68.1539 195.52C67.9722 196.126 67.6695 196.686 67.2457 197.2C66.8219 197.715 66.2618 198.169 65.5655 198.563C64.8693 198.956 64.014 199.259 62.9999 199.471L55.3711 200.992L68.5626 200.992L68.5626 204.148Z" fill="white"/>
<path d="M374.256 209.007L374.256 224.9L370.782 224.9L370.782 218.498L361.927 218.498L361.927 224.9L358.454 224.9L358.454 209.007L361.927 209.007L361.927 215.274L370.782 215.274L370.782 209.007L374.256 209.007Z" fill="white"/>
<path d="M355.273 209.007L355.273 212.231L349.574 212.231L349.574 224.9L346.101 224.9L346.101 212.231L340.402 212.231L340.402 209.007L355.273 209.007Z" fill="white"/>
<path d="M75.4019 213.208L79.0346 209.007L83.7345 209.007L79.466 213.162C78.467 214.191 77.7253 215.13 77.241 215.978C76.7566 216.81 76.4463 217.643 76.3101 218.475C76.3252 218.384 76.3858 218.218 76.4917 217.976C76.5977 217.733 76.7415 217.453 76.9231 217.135C77.1047 216.818 77.3242 216.477 77.5815 216.114C77.8389 215.735 78.1265 215.387 78.4443 215.069C78.7773 214.751 79.1406 214.471 79.5342 214.229C79.9277 213.972 80.3515 213.805 80.8056 213.73C81.0175 213.699 81.2143 213.677 81.3959 213.662C81.5927 213.631 81.7819 213.616 81.9636 213.616C82.7355 213.616 83.4545 213.752 84.1205 214.025C84.7865 214.297 85.3617 214.683 85.8461 215.183C86.3304 215.667 86.7089 216.25 86.9813 216.931C87.2689 217.597 87.4127 218.339 87.4127 219.156C87.4127 220.155 87.2159 221.018 86.8224 221.745C86.444 222.471 85.9218 223.069 85.2558 223.538C84.6049 224.007 83.8481 224.356 82.9853 224.583C82.1225 224.795 81.2067 224.9 80.238 224.9C79.1784 224.9 78.1946 224.795 77.2864 224.583C76.3782 224.356 75.5911 224.007 74.9251 223.538C74.2742 223.069 73.7596 222.471 73.3812 221.745C73.0027 221.018 72.8135 220.148 72.8135 219.133C72.8135 218.437 72.8817 217.817 73.0179 217.272C73.1541 216.712 73.3357 216.205 73.5628 215.75C73.805 215.281 74.0774 214.842 74.3802 214.434C74.698 214.025 75.0386 213.616 75.4019 213.208ZM76.3101 219.179C76.3101 219.648 76.4009 220.057 76.5825 220.405C76.7793 220.753 77.0518 221.033 77.3999 221.245C77.748 221.457 78.1643 221.616 78.6487 221.722C79.133 221.828 79.6628 221.881 80.238 221.881C80.7829 221.881 81.2749 221.835 81.7138 221.745C82.1679 221.639 82.5615 221.48 82.8945 221.268C83.2275 221.041 83.4848 220.761 83.6664 220.428C83.8481 220.08 83.9389 219.663 83.9389 219.179C83.9389 218.74 83.8254 218.354 83.5983 218.021C83.3864 217.688 83.1064 217.408 82.7582 217.181C82.4101 216.954 82.0165 216.787 81.5776 216.681C81.1386 216.56 80.6921 216.5 80.238 216.5C79.7688 216.5 79.2995 216.56 78.8303 216.681C78.3762 216.787 77.96 216.954 77.5815 217.181C77.2031 217.408 76.8928 217.688 76.6506 218.021C76.4236 218.354 76.3101 218.74 76.3101 219.179Z" fill="white"/>
<path d="M68.7178 224.855L55.4582 224.9L55.4582 221.699L62.7238 218.089C63.6774 217.559 64.3434 216.984 64.7218 216.363C65.1153 215.728 65.3121 215.054 65.3121 214.343C65.3121 213.979 65.2137 213.662 65.017 213.389C64.8202 213.102 64.5704 212.859 64.2677 212.663C63.965 212.466 63.6168 212.314 63.2233 212.209C62.8449 212.103 62.4665 212.05 62.088 212.05C61.6794 212.05 61.2555 212.125 60.8166 212.277C60.3928 212.413 60.0068 212.602 59.6586 212.844C59.3105 213.086 59.0229 213.374 58.7958 213.707C58.5839 214.04 58.478 214.396 58.478 214.774L55.095 214.774C55.095 213.896 55.2917 213.102 55.6853 212.39C56.094 211.679 56.6238 211.073 57.2746 210.574C57.9406 210.074 58.6899 209.688 59.5224 209.416C60.3549 209.143 61.2026 209.007 62.0653 209.007C62.9281 209.007 63.7455 209.128 64.5175 209.37C65.3046 209.597 66.0008 209.938 66.6063 210.392C67.2118 210.831 67.6886 211.384 68.0367 212.05C68.4 212.716 68.5816 213.48 68.5816 214.343C68.5816 214.978 68.4908 215.607 68.3092 216.227C68.1275 216.833 67.8248 217.393 67.401 217.907C66.9771 218.422 66.4171 218.876 65.7208 219.27C65.0245 219.663 64.1693 219.966 63.1552 220.178L55.5264 221.699L68.7178 221.699L68.7178 224.855Z" fill="white"/>
</svg>
